<svg height="512pt" viewBox="0 0 512 512" width="512pt" xmlns="http://www.w3.org/2000/svg"><path d="m512 256c0 141.386719-114.613281 256-256 256s-256-114.613281-256-256 114.613281-256 256-256 256 114.613281 256 256zm0 0" fill="#ffc612"/><path d="m267.253906 511.738281c136.160156-5.890625 244.746094-118.125 244.746094-255.738281 0-1.261719-.03125-2.515625-.046875-3.769531l-129.652344-129.652344-23.570312 23.570313 39.382812 39.378906-6.957031 6.960937-120.15625-120.15625-30 33.332031 30 30v51.582032l-41.101562-41.097656-17.25 26.953124-48.167969-48.167968-21.210938 21.214844 125.523438 125.523437-172.535157 69.074219zm0 0" fill="#fa0"/><path d="m329.035156 268.984375c-11.246094.128906-20.296875 9.28125-20.296875 20.53125v60.445313c0 .023437-.015625.042968-.039062.042968l-5.898438.410156c-27.226562 1.894532-49.121093 22.765626-53.074219 49.089844l-12.878906.109375c3.757813-31.105469 27.988282-56.398437 59.09375-61.257812.019532-.003907.035156-.019531.035156-.042969v-49.511719c0-.496093.011719-.988281.039063-1.476562.65625-12.417969 11.722656-27.546875 24.160156-27.625.199219 0 .101563-83.554688.039063-109.707031-.019532-8.554688-6.960938-15.46875-15.515625-15.46875h-.042969c-8.570312 0-15.519531 6.945312-15.519531 15.515624v116.324219h-10.535157v-127.457031c0-8.570312-6.945312-15.519531-15.515624-15.519531h-1.117188c-8.570312 0-15.515625 6.949219-15.515625 15.519531l-.003906 136.371094h-10.535157l.003907-116.863282c0-8.570312-6.949219-15.519531-15.519531-15.519531h-1.113282c-8.570312 0-15.519531 6.949219-15.519531 15.519531v128.007813h-10.535156v-91.5625c0-8.570313-6.949219-15.515625-15.515625-15.515625-8.574219 0-15.519532 6.945312-15.519532 15.515625l-.003906 207.921875h.246094c1.730469 19.601562 13.175781 36.414062 29.492188 45.589844.011718.007812.019531.023437.019531.039062 0 0 .003906 22.523438.011719 55.511719 20.46875 5.273437 41.925781 8.078125 64.039062 8.078125 22.160156 0 43.660156-2.816406 64.167969-8.109375.003906-30.53125.003906-52.820313.003906-52.820313 0-.015624.011719-.03125.027344-.039062 17.425781-7.789062 29.605469-25.277344 29.605469-45.566406v-115.949219c0-11.433594-9.335938-20.664063-20.769532-20.53125zm0 0" fill="#ffeee5"/><path d="m295.941406 338.355469c.019532-.003907.035156-.019531.035156-.042969v-49.511719c0-.496093.015626-.988281.039063-1.476562.65625-12.417969 11.722656-27.546875 24.160156-27.625.199219 0 .105469-83.554688.042969-109.707031-.023438-8.554688-6.964844-15.46875-15.519531-15.46875h-.042969c-8.570312 0-15.515625 6.945312-15.519531 15.515624v116.324219h-10.535157l.003907-127.457031c0-8.570312-6.949219-15.519531-15.519531-15.519531h-1.113282c-2.230468 0-4.34375.480469-6.257812 1.324219v234.890624c10.460937-11.0625 24.457031-18.78125 40.226562-21.246093zm0 0" fill="#ffdecf"/><path d="m329.035156 268.984375c-11.246094.128906-20.296875 9.28125-20.296875 20.53125v60.445313c0 .023437-.015625.042968-.039062.042968l-5.898438.410156c-20.535156 1.429688-38.027343 13.652344-47.085937 30.867188v130.714844c.09375 0 .1875.003906.285156.003906 22.160156 0 43.660156-2.816406 64.167969-8.109375.003906-30.53125.003906-52.820313.003906-52.820313 0-.015624.011719-.03125.027344-.039062 17.425781-7.789062 29.605469-25.277344 29.605469-45.566406v-115.949219c0-11.433594-9.335938-20.664063-20.769532-20.53125zm0 0" fill="#ffdecf"/><path d="m241 72.332031h30v33.332031h-30zm0 0" fill="#fff"/><path d="m255.714844 72.332031h15.285156v33.332031h-15.285156zm0 0" fill="#e9edf5"/><path d="m337.515625 124.933594 23.566406-23.570313 21.214844 21.214844-23.570313 23.570313zm0 0" fill="#e9edf5"/><path d="m119.695312 122.578125 21.214844-21.214844 23.570313 23.570313-21.214844 21.214844zm0 0" fill="#fff"/><path d="m96.257812 171.253906h319.484376v169.492188h-319.484376zm0 0" fill="#00afcc"/><path d="m255.714844 171.253906h160.027344v169.492188h-160.027344zm0 0" fill="#00a0aa"/><path d="m127.878906 198.691406h256.242188v114.617188h-256.242188zm0 0" fill="#00c8c8"/><path d="m255.714844 198.691406h128.40625v114.617188h-128.40625zm0 0" fill="#00afcc"/><path d="m289.746094 256c0-24.4375-15.109375-44.246094-33.746094-44.246094s-33.746094 19.808594-33.746094 44.246094 15.109375 44.246094 33.746094 44.246094 33.746094-19.808594 33.746094-44.246094zm0 0" fill="#00afcc"/><path d="m256 211.753906c-.097656 0-.191406.007813-.285156.007813v88.476562c.09375 0 .1875.007813.285156.007813 18.640625 0 33.746094-19.808594 33.746094-44.246094s-15.105469-44.246094-33.746094-44.246094zm0 0" fill="#00a0aa"/><path d="m364.902344 256c0-15.859375-9.804688-28.714844-21.902344-28.714844s-21.902344 12.855469-21.902344 28.714844 9.804688 28.714844 21.902344 28.714844 21.902344-12.855469 21.902344-28.714844zm0 0" fill="#00a0aa"/><path d="m190.902344 256c0-15.859375-9.804688-28.714844-21.902344-28.714844s-21.902344 12.855469-21.902344 28.714844 9.804688 28.714844 21.902344 28.714844 21.902344-12.855469 21.902344-28.714844zm0 0" fill="#00afcc"/><path d="m349.804688 405.464844v-115.949219c0-11.433594-9.335938-20.664063-20.769532-20.53125-11.246094.128906-20.296875 9.28125-20.296875 20.53125v60.445313zm0 0" fill="#ffdecf"/></svg>